<?xml version="1.0" encoding="UTF-8" standalone="no"?>
<!-- Generator: Adobe Illustrator 19.0.0, SVG Export Plug-In . SVG Version: 6.00 Build 0)  -->

<svg
   xmlns:dc="http://purl.org/dc/elements/1.1/"
   xmlns:cc="http://creativecommons.org/ns#"
   xmlns:rdf="http://www.w3.org/1999/02/22-rdf-syntax-ns#"
   xmlns:svg="http://www.w3.org/2000/svg"
   xmlns="http://www.w3.org/2000/svg"
   xmlns:sodipodi="http://sodipodi.sourceforge.net/DTD/sodipodi-0.dtd"
   xmlns:inkscape="http://www.inkscape.org/namespaces/inkscape"
   version="1.1"
   id="Layer_1"
   x="0px"
   y="0px"
   viewBox="0 0 16 16"
   xml:space="preserve"
   sodipodi:docname="globe.svg"
   width="16"
   height="16"
   inkscape:version="0.92.3 (2405546, 2018-03-11)"><metadata
   id="metadata43"><rdf:RDF><cc:Work
       rdf:about=""><dc:format>image/svg+xml</dc:format><dc:type
         rdf:resource="http://purl.org/dc/dcmitype/StillImage" /><dc:title></dc:title></cc:Work></rdf:RDF></metadata><defs
   id="defs41" /><sodipodi:namedview
   pagecolor="#ffffff"
   bordercolor="#666666"
   borderopacity="1"
   objecttolerance="10"
   gridtolerance="10"
   guidetolerance="10"
   inkscape:pageopacity="0"
   inkscape:pageshadow="2"
   inkscape:window-width="1920"
   inkscape:window-height="1017"
   id="namedview39"
   showgrid="false"
   inkscape:zoom="14.75"
   inkscape:cx="12.777607"
   inkscape:cy="-2.8189397"
   inkscape:window-x="-8"
   inkscape:window-y="-8"
   inkscape:window-maximized="1"
   inkscape:current-layer="Layer_1" />
<g
   id="g6"
   transform="matrix(0.02605271,0,0,0.02525821,1.4237288,1.6247944)">
	<g
   id="g4">
		<path
   d="M 256,0 C 114.842,0 0,114.842 0,256 0,397.158 114.842,512 256,512 397.158,512 512,397.158 512,256 512,114.842 397.158,0 256,0 Z m -83.233,49.548 c -15.431,21.032 -26.894,45.924 -35.095,70.354 -14.907,-5.344 -28.707,-11.736 -41.104,-19.09 21.407,-21.985 47.304,-39.572 76.199,-51.264 z m -97.873,77.154 c 15.971,9.964 34.036,18.452 53.65,25.317 -6.467,27.334 -10.344,56.811 -11.382,87.284 H 34.016 c 3.112,-41.778 17.808,-80.38 40.878,-112.601 z M 74.893,385.297 C 51.824,353.078 37.127,314.475 34.015,272.696 h 83.145 c 1.038,30.474 4.915,59.95 11.382,87.284 -19.613,6.865 -37.676,15.353 -53.649,25.317 z m 21.676,25.89 c 12.397,-7.354 26.197,-13.746 41.104,-19.09 8.2,24.428 19.663,49.32 35.095,70.354 -28.896,-11.691 -54.793,-29.278 -76.199,-51.264 z m 142.735,64.339 c -34.478,-12.654 -57.72,-57.982 -69.619,-92.899 21.841,-5.198 45.296,-8.391 69.619,-9.4 z m 0,-135.713 c -27.403,1.061 -53.935,4.708 -78.711,10.722 -5.624,-24.321 -9.038,-50.587 -10.029,-77.84 h 88.74 z m 0,-100.509 h -88.74 c 0.99,-27.253 4.404,-53.518 10.029,-77.84 24.776,6.014 51.308,9.661 78.711,10.722 z m 0,-100.531 c -24.322,-1.008 -47.777,-4.203 -69.619,-9.4 11.89,-34.894 35.131,-80.242 69.619,-92.899 z m 197.803,-12.07 c 23.069,32.219 37.766,70.822 40.878,112.601 H 394.84 c -1.038,-30.474 -4.915,-59.95 -11.382,-87.284 19.613,-6.865 37.676,-15.353 53.649,-25.317 z m -21.676,-25.89 c -12.397,7.354 -26.197,13.746 -41.104,19.09 -8.2,-24.428 -19.663,-49.32 -35.095,-70.354 28.896,11.691 54.793,29.278 76.199,51.264 z M 272.696,36.474 c 34.478,12.654 57.72,57.982 69.619,92.899 -21.841,5.198 -45.296,8.391 -69.619,9.4 z m 0,135.713 c 27.403,-1.061 53.935,-4.708 78.711,-10.722 5.624,24.321 9.038,50.587 10.029,77.84 h -88.74 z m 0,100.397 h 88.74 c -0.99,27.253 -4.404,53.63 -10.029,77.951 -24.776,-6.014 -51.308,-9.661 -78.711,-10.722 z m 0,202.942 V 373.227 c 24.322,1.008 47.777,4.203 69.619,9.4 -11.89,34.893 -35.132,80.241 -69.619,92.899 z m 66.537,-13.074 c 15.431,-21.032 26.894,-45.924 35.095,-70.354 14.907,5.344 28.706,11.736 41.104,19.09 -21.407,21.985 -47.304,39.572 -76.199,51.264 z m 97.873,-77.154 c -15.971,-9.964 -34.036,-18.452 -53.65,-25.317 6.467,-27.334 10.344,-56.922 11.382,-87.395 h 83.145 c -3.111,41.778 -17.807,80.491 -40.877,112.712 z"
   id="path2"
   inkscape:connector-curvature="0" />
	</g>
</g>
<g
   id="g8"
   transform="translate(0,-496)">
</g>
<g
   id="g10"
   transform="translate(0,-496)">
</g>
<g
   id="g12"
   transform="translate(0,-496)">
</g>
<g
   id="g14"
   transform="translate(0,-496)">
</g>
<g
   id="g16"
   transform="translate(0,-496)">
</g>
<g
   id="g18"
   transform="translate(0,-496)">
</g>
<g
   id="g20"
   transform="translate(0,-496)">
</g>
<g
   id="g22"
   transform="translate(0,-496)">
</g>
<g
   id="g24"
   transform="translate(0,-496)">
</g>
<g
   id="g26"
   transform="translate(0,-496)">
</g>
<g
   id="g28"
   transform="translate(0,-496)">
</g>
<g
   id="g30"
   transform="translate(0,-496)">
</g>
<g
   id="g32"
   transform="translate(0,-496)">
</g>
<g
   id="g34"
   transform="translate(0,-496)">
</g>
<g
   id="g36"
   transform="translate(0,-496)">
</g>
</svg>